LIKE THIS TORRENT? COME AND JOIN HTTP://TORRENTZONE.NET - MORE MOVIES, FASTER SPEEDS, AND SSL DOWNLOADS AVAILABLE

**WE ARE CURRENTLY SEEKING HIGH SPEED UPLOADERS - 100 MBIT SERVER OR BETTER - SCENE ACCOUNTS HIGHLY PREFERRED. FILL OUT APPLICATION ON SITE OR CONTACT STAFF FOR MORE DETAILS**

------------------------------------------------------------------------------------- 
http://www.imdb.com/title/tt1226229/
Format                           : AVI
Format/Info                      : Audio Video Interleave
File size                        : 701 MiB
Duration                         : 1h 37mn
Overall bit rate                 : 1 008 Kbps
Writing application              : VirtualDubMod 1.5.10.2 (build 2540/release)
Ripper                            : ELEKTRI4KA

Video
ID                               : 0
Format                           : MPEG-4 Visual
Format profile                   : Advanced Simple@L5
Format settings, BVOP            : Yes
Format settings, QPel            : No
Format settings, GMC             : No warppoints
Format settings, Matrix          : Default (H.263)
Codec ID                         : XVID
Codec ID/Hint                    : XviD
Duration                         : 1h 37mn
Bit rate                         : 871 Kbps
Width                            : 640 pixels
Height                           : 304 pixels
Display aspect ratio             : 2.2:1
Frame rate                       : 25.000 fps
Resolution                       : 8 bits
Colorimetry                      : 4:2:0
Scan type                        : Progressive
Bits/(Pixel*Frame)               : 0.179
Stream size                      : 605 MiB (86%)
Writing library                  : XviD 1.2.1 (UTC 2008-12-04)

Audio
LANGUAGE       :  RUSSIAN!
ID                               : 1
Format                           : MPEG Audio
Format version                   : Version 1
Format profile                   : Layer 3
Codec ID                         : 55
Codec ID/Hint                    : MP3
Duration                         : 1h 37mn
Bit rate mode                    : Constant
Bit rate                         : 128 Kbps
Channel(s)                       : 2 channels
Sampling rate                    : 48.0 KHz
Stream size                      : 88.9 MiB (13%)
Alignment                        : Aligned on interleaves
Interleave, duration             : 40 ms (1.00 video frame)
Interleave, preload duration     : 504 ms
Writing library                  : LAME3.98r
Encoding settings                : -m s -V 4 -q 2 -lowpass 17 -b 128

Aaron Greenberg (Hill) gets things done. The ambitious 23-year-old has exaggerated
his way into a dream job just in time for a career-making assignment. His mission: Fly
to London and escort a rock god to L.A.s Greek Theatre for the first-stop on a
$100-million tour. His warning: Turn your back on him at your own peril. British rocker
Aldous Snow (Brand) is both a brilliant musician and walking sex. Weary of yes men
and piles of money, the former front man is searching for the meaning of life. But that
doesnt mean he cant have a few orgies while he finds it. When he learns his true love
is in California, Aldous makes it his quest to win her backright before kick-starting his
world domination.